# xmcd
#
# Track frame offsets:
#	150
#	11708
#	35976
#	51320
#	65140
#	75152
#	90064
#	114467
#	130476
#	150706
#	164818
#	190197
#
# Disc length: 2710 seconds
#
# Revision: 1
# Processed by: cddbd v1.5.2PL0 Copyright (c) Steve Scherf et al.
# Submitted via: EasyCDDAExtractor 16.0.6.1
#
DISCID=9f0a940c
DTITLE=GRAZZI BRASIL - NAS CORDAS DE UM CAVAQUINHO
DYEAR=1900
DGENRE=
TTITLE0=GRAZZI BRASIL - MÃE OXUM
TTITLE1=GRAZZI BRASIL PART. FLAVIA BITTENCOURT - SEM BOUTIQUE SEM BRECHÓ
TTITLE2=GRAZZI BRASIL - NAS CORDAS DE UM CAVAQUINHO
TTITLE3=GRAZZI BRASIL PART. PAULO NETO - APESAR DOS PESARES
TTITLE4=GRAZZI BRASIL - QUEBRANDO AS CORRENTES
TTITLE5=GRAZZI BRASIL - PECADO ORIGINAL
TTITLE6=GRAZZI BRASIL - O PRANTO E O TAMBORIM
TTITLE7=GRAZZI BRASIL PART. GRAÇA BRAGA - E COM VENTO SE FOI
TTITLE8=GRAZZI BRASIL - MALANDREANJOS
TTITLE9=GRAZZI BRASIL PART. Z'ÁFRICA BRASIL - MEU BRASIL
TTITLE10=GRAZZI BRASIL - A ROUPA - PATUÁ DE FÉ
TTITLE11=GRAZZI BRASIL PART. GIOVANA E GUILHERME - CANÇÃO PARA JOÃO
EXTD=
EXTT0=
EXTT1=
EXTT2=
EXTT3=
EXTT4=
EXTT5=
EXTT6=
EXTT7=
EXTT8=
EXTT9=
EXTT10=
EXTT11=
PLAYORDER=
